<svg xmlns:dc="http://purl.org/dc/elements/1.1/" xmlns:cc="http://creativecommons.org/ns#" xmlns:rdf="http://www.w3.org/1999/02/22-rdf-syntax-ns#" xmlns:svg="http://www.w3.org/2000/svg" xmlns="http://www.w3.org/2000/svg" xmlns:sodipodi="http://sodipodi.sourceforge.net/DTD/sodipodi-0.dtd" xmlns:inkscape="http://www.inkscape.org/namespaces/inkscape" version="1.1" viewBox="0 0 32 40" x="0px" y="0px"><g transform="translate(0,-1020.3622)"><path style="color:#000000;font-style:normal;font-variant:normal;font-weight:normal;font-stretch:normal;font-size:medium;line-height:normal;font-family:sans-serif;text-indent:0;text-align:start;text-decoration:none;text-decoration-line:none;text-decoration-style:solid;text-decoration-color:#000000;letter-spacing:normal;word-spacing:normal;text-transform:none;direction:ltr;writing-mode:lr-tb;baseline-shift:baseline;text-anchor:start;white-space:normal;clip-rule:nonzero;display:inline;overflow:visible;visibility:visible;opacity:1;isolation:auto;mix-blend-mode:normal;color-interpolation:sRGB;color-interpolation-filters:linearRGB;solid-color:#000000;solid-opacity:1;fill:#000000;fill-opacity:1;fill-rule:nonzero;stroke:none;stroke-width:1px;stroke-linecap:round;stroke-linejoin:miter;stroke-miterlimit:4;stroke-dasharray:none;stroke-dashoffset:0;stroke-opacity:1;color-rendering:auto;image-rendering:auto;shape-rendering:auto;text-rendering:auto;enable-background:accumulate" d="m 10.00057,1021.361 c -1.09864,0 -2,0.9014 -2,2 0,1.0987 0.90136,2 2,2 1.09864,0 2,-0.9013 2,-2 0,-1.0986 -0.90136,-2 -2,-2 z m 0,1 c 0.5582,0 1,0.4418 1,1 0,0.5582 -0.4418,1 -1,1 -0.5582,0 -1,-0.4418 -1,-1 0,-0.5582 0.4418,-1 1,-1 z m 6.5,1.5 c -0.8225,0 -1.5,0.6775 -1.5,1.5 0,0.8225 0.6775,1.5 1.5,1.5 0.8225,0 1.5,-0.6775 1.5,-1.5 0,-0.8225 -0.6775,-1.5 -1.5,-1.5 z m 0,1 c 0.28206,0 0.5,0.218 0.5,0.5 0,0.2821 -0.21794,0.5 -0.5,0.5 -0.28206,0 -0.5,-0.2179 -0.5,-0.5 0,-0.282 0.21794,-0.5 0.5,-0.5 z m -0.004,2.4961 -7,0.01 c -0.82235,0 -1.5,0.6777 -1.5,1.5 0,0.8224 0.67765,1.5 1.5,1.5 l 0.5,0 0,5.3691 0,0.2618 0,1.0039 c -2.06598,0.9026 -3.55575,2.6522 -4.17578,4.709 -0.10162,0.3377 -0.18496,0.6817 -0.23828,1.0332 -0.004,0.026 -0.004,0.052 -0.008,0.078 -0.0432,0.3064 -0.0656,0.6165 -0.0703,0.9297 -5.9e-4,0.038 -0.008,0.074 -0.008,0.1113 0,0.019 0.004,0.037 0.004,0.057 0.002,0.2917 0.0234,0.5865 0.0606,0.8809 0.009,0.073 0.0219,0.1445 0.0332,0.2168 0.015,0.096 0.0241,0.1927 0.043,0.2891 0.0313,0.1598 0.0722,0.315 0.11328,0.4707 0.0108,0.041 0.0178,0.083 0.0293,0.123 0.082,0.2909 0.18451,0.5714 0.29882,0.8457 0.0179,0.043 0.036,0.085 0.0547,0.127 0.25047,0.5709 0.56988,1.1012 0.94531,1.584 0.009,0.011 0.0167,0.022 0.0254,0.033 0.39622,0.5037 0.85335,0.9518 1.36132,1.3378 1.2742,0.968 2.8557,1.5394 4.55078,1.5352 2.41828,-0.01 4.60349,-1.1737 5.98047,-3.0098 l 0,0.01 c 0,0.1964 0.0215,0.387 0.0586,0.5723 0.0258,0.1324 0.0686,0.2572 0.11133,0.3828 0.0168,0.048 0.0277,0.099 0.0469,0.1465 0.06,0.1507 0.13613,0.2921 0.21875,0.4297 0.009,0.015 0.0177,0.032 0.0273,0.047 0.0859,0.1374 0.18471,0.2633 0.29102,0.3847 0.0101,0.012 0.017,0.026 0.0273,0.037 l 0.002,0 c 0.54952,0.6079 1.33535,0.9981 2.21679,0.9981 0.88144,0 1.66728,-0.3902 2.2168,-0.9981 l 0.002,0 c 0.0103,-0.011 0.0172,-0.025 0.0274,-0.037 0.10631,-0.1214 0.2051,-0.2473 0.29101,-0.3847 0.001,0 0.005,2e-4 0.006,-0.01 0.008,-0.013 0.0135,-0.028 0.0215,-0.041 0.0826,-0.1376 0.15872,-0.279 0.21875,-0.4297 0.0192,-0.047 0.0301,-0.098 0.0469,-0.1464 0.0427,-0.1256 0.0855,-0.2505 0.11133,-0.3829 0.037,-0.1855 0.0586,-0.3758 0.0586,-0.5722 l 0,-1.4981 c 2e-5,0 2e-5,-0.01 0,-0.01 l 0,-0.4922 0,-1 0,-2.5078 0,-4 0,-4 0,-1.4922 1,0 c 0.67616,0.01 0.67616,-1.0096 0,-1 l -1.5,0 -5,0 -1.5,0 c -0.0163,-8e-4 -0.0326,-8e-4 -0.0488,0 -0.66666,0.033 -0.6178,1.0326 0.0488,1 l 1,0 0,6.0118 c -0.75887,-1.0159 -1.77863,-1.8437 -3,-2.377 l 0,-6.6348 0.5,0 c 0.82237,0 1.5,-0.6776 1.5,-1.5 0,-0.8223 -0.67763,-1.5 -1.5,-1.5 z m 7.004,0.5039 c -0.8225,0 -1.5,0.6775 -1.5,1.5 0,0.8225 0.6775,1.5 1.5,1.5 0.8225,0 1.5,-0.6775 1.5,-1.5 0,-0.8225 -0.6775,-1.5 -1.5,-1.5 z m -14.00391,0.5059 7,0 c 0.28566,0 0.5,0.2144 0.5,0.5 0,0.2857 -0.21434,0.5 -0.5,0.5 l -7,0 c -0.28565,0 -0.5,-0.2143 -0.5,-0.5 0,-0.2856 0.21435,-0.5 0.5,-0.5 z m 14.00391,0.4941 c 0.28206,0 0.5,0.218 0.5,0.5 0,0.2821 -0.21794,0.5 -0.5,0.5 -0.28206,0 -0.5,-0.2179 -0.5,-0.5 0,-0.282 0.21794,-0.5 0.5,-0.5 z m -12.50391,1.5059 4,0 0,6.9707 c 2.4e-4,0.2074 0.12845,0.3931 0.32227,0.4668 0.54301,0.2077 1.03703,0.4934 1.49219,0.8242 0.10396,0.076 0.20991,0.1492 0.30859,0.2304 0.16764,0.1378 0.32433,0.2865 0.47656,0.4395 0.0898,0.09 0.17767,0.182 0.26172,0.2773 0.13746,0.1555 0.26883,0.3168 0.39063,0.4844 0.0847,0.117 0.16163,0.2391 0.23828,0.3613 0.10124,0.1609 0.20022,0.3228 0.28711,0.4922 0.0745,0.146 0.13584,0.298 0.19922,0.4493 0.069,0.1642 0.14368,0.3259 0.19922,0.496 0.0531,0.1636 0.0858,0.3338 0.125,0.502 l -6.39649,0 a 0.50005,0.50005 0 1 0 0,1 l 6.55273,0 c 0.0144,0.1829 0.0425,0.3633 0.041,0.5488 -10e-4,0.202 -0.01,0.4024 -0.0293,0.5996 -2.5e-4,0 -0.002,0.01 -0.002,0.01 -0.0109,0.1071 -0.0305,0.215 -0.0469,0.3223 -0.0129,0.086 -0.0229,0.1729 -0.0391,0.2578 -0.0272,0.1407 -0.0617,0.2772 -0.0976,0.4141 -0.0149,0.057 -0.0266,0.1154 -0.043,0.1719 -0.0408,0.1403 -0.0891,0.2782 -0.13867,0.414 -0.0142,0.039 -0.028,0.078 -0.043,0.1172 -0.12695,0.3282 -0.27997,0.6411 -0.45508,0.9395 -0.0192,0.033 -0.0388,0.065 -0.0586,0.098 -0.17883,0.2928 -0.37697,0.5714 -0.59766,0.8301 -0.0125,0.015 -0.0264,0.028 -0.0391,0.043 -0.46939,0.5404 -1.0255,1.0018 -1.64453,1.3613 -0.01,0.01 -0.0194,0.012 -0.0293,0.018 -0.30431,0.1746 -0.62344,0.3231 -0.95508,0.4472 -0.0239,0.01 -0.0482,0.017 -0.0723,0.025 -0.33141,0.1195 -0.67476,0.2145 -1.02734,0.2793 -0.0535,0.01 -0.10813,0.017 -0.16211,0.025 -0.139,0.022 -0.27839,0.044 -0.41992,0.057 -10e-4,1e-4 -0.003,-10e-5 -0.004,0 -0.0393,0 -0.0797,-3e-4 -0.11914,0.01 -0.15226,0.011 -0.30431,0.021 -0.45898,0.021 -0.15532,5e-4 -0.308,-0.011 -0.46094,-0.02 -0.0422,0 -0.0849,2e-4 -0.12695,-0.01 -0.13689,-0.012 -0.27169,-0.031 -0.40625,-0.051 -0.0606,-0.01 -0.12166,-0.017 -0.18164,-0.027 -0.3461,-0.062 -0.68381,-0.1543 -1.00977,-0.2695 -0.0307,-0.011 -0.0613,-0.022 -0.0918,-0.033 -0.33055,-0.1226 -0.64952,-0.2687 -0.95313,-0.4415 -0.004,0 -0.008,3e-4 -0.0117,-0.01 -0.62026,-0.3549 -1.17609,-0.8114 -1.64844,-1.3476 -0.0186,-0.021 -0.0384,-0.04 -0.0566,-0.061 -0.22211,-0.2588 -0.42338,-0.5367 -0.60351,-0.83 -0.0167,-0.027 -0.0326,-0.055 -0.0488,-0.082 -0.17632,-0.2968 -0.33236,-0.6088 -0.46094,-0.9355 -0.0205,-0.052 -0.0394,-0.1054 -0.0586,-0.1582 -0.048,-0.132 -0.095,-0.2642 -0.13477,-0.4004 -0.009,-0.03 -0.0152,-0.062 -0.0234,-0.092 -0.0442,-0.16 -0.0848,-0.321 -0.11719,-0.4863 -10e-4,-0.01 -0.003,-0.014 -0.004,-0.021 -0.0346,-0.1818 -0.0629,-0.3659 -0.082,-0.5528 -0.005,-0.044 -0.004,-0.089 -0.008,-0.1328 -0.013,-0.1587 -0.0219,-0.3186 -0.0234,-0.4804 -0.002,-0.192 0.025,-0.379 0.0391,-0.5684 l 0.66016,0 a 0.50005,0.50005 0 1 0 0,-1 l -0.50391,0 c 0.0378,-0.1686 0.0718,-0.3385 0.125,-0.5019 0.0485,-0.1486 0.11495,-0.2894 0.17383,-0.4336 0.0687,-0.1686 0.13434,-0.3379 0.2168,-0.5 0.0821,-0.1609 0.17841,-0.3135 0.27344,-0.4668 0.0849,-0.1372 0.17062,-0.2735 0.26562,-0.4043 0.11014,-0.1512 0.22863,-0.2961 0.35156,-0.4375 0.10203,-0.1175 0.20768,-0.2315 0.31836,-0.3418 0.13145,-0.1308 0.26734,-0.2574 0.41016,-0.377 0.12872,-0.1078 0.26648,-0.2065 0.4043,-0.3047 0.17151,-0.1222 0.33902,-0.2495 0.52343,-0.3554 0.0109,-0.01 0.0223,-0.011 0.0332,-0.018 0.28137,-0.1594 0.57619,-0.3001 0.88476,-0.418 0.19305,-0.074 0.32038,-0.2599 0.32031,-0.4668 l 0,-0.9648 2.50782,0 c 0.67616,0.01 0.67616,-1.0096 0,-1 l -2.50782,0 0,-1 1.49219,0 c 0.67615,0.01 0.67615,-1.0096 0,-1 l -1.49219,0 0,-1 2.50782,0 c 0.67616,0.01 0.67616,-1.0096 0,-1 l -2.50782,0 0,-1.0039 z m 9,3 4,0 0,1 -2.50781,0 c -0.0163,-8e-4 -0.0326,-8e-4 -0.0488,0 -0.66659,0.033 -0.61771,1.0326 0.0488,1 l 2.50781,0 0,1 -1.49218,0 c -0.0169,-9e-4 -0.0339,-9e-4 -0.0508,0 -0.66566,0.035 -0.61502,1.0329 0.0508,1 l 1.49218,0 0,1 -2.50781,0 c -0.0163,-8e-4 -0.0326,-8e-4 -0.0488,0 -0.66659,0.033 -0.61771,1.0326 0.0488,1 l 2.50781,0 0,1 -1.49218,0 c -0.0169,-9e-4 -0.0339,-9e-4 -0.0508,0 -0.66566,0.035 -0.61502,1.0329 0.0508,1 l 1.49218,0 0,1 -2.50781,0 c -0.0163,-8e-4 -0.0326,-8e-4 -0.0488,0 -0.66659,0.033 -0.61771,1.0326 0.0488,1 l 2.50781,0 0,1 -1.49218,0 c -0.0169,-9e-4 -0.0339,-9e-4 -0.0508,0 -0.66566,0.035 -0.61502,1.0329 0.0508,1 l 1.49218,0 0,0.998 -2.50781,0 c -0.0163,-8e-4 -0.0326,-8e-4 -0.0488,0 -0.66659,0.033 -0.61771,1.0326 0.0488,1 l 2.50781,0 0,0.9981 c 0,0.5584 -0.22161,1.0575 -0.58203,1.4179 -0.36042,0.3604 -0.85965,0.5821 -1.41797,0.5821 -0.55833,0 -1.05755,-0.2217 -1.41797,-0.5821 -0.0897,-0.09 -0.17296,-0.1871 -0.24414,-0.2929 -0.0711,-0.1058 -0.13164,-0.2185 -0.18164,-0.3379 -0.0499,-0.1193 -0.0889,-0.2446 -0.11523,-0.375 -0.0263,-0.1349 -0.041,-0.2706 -0.041,-0.4102 l 0,-1 0,-0.8066 c 0.15831,-0.4116 0.28214,-0.8412 0.36719,-1.2871 0.0442,-0.2315 0.0756,-0.4645 0.0977,-0.6954 0.005,-0.051 0.004,-0.1031 0.008,-0.1543 0.0131,-0.1745 0.0245,-0.348 0.0254,-0.5214 6e-5,-0.012 0.002,-0.023 0.002,-0.035 -6e-5,-0.052 -0.007,-0.1026 -0.008,-0.1543 -0.004,-0.1754 -0.0115,-0.35 -0.0273,-0.5234 -0.063,-0.6881 -0.22193,-1.3571 -0.46485,-1.9922 l 0,-7.8281 z m -7.49609,4.9941 c -0.8225,0 -1.5,0.6775 -1.5,1.5 0,0.8225 0.6775,1.5 1.5,1.5 0.8225,0 1.5,-0.6775 1.5,-1.5 0,-0.8225 -0.6775,-1.5 -1.5,-1.5 z m 0,1 c 0.28206,0 0.5,0.218 0.5,0.5 0,0.2821 -0.21794,0.5 -0.5,0.5 -0.28206,0 -0.5,-0.2179 -0.5,-0.5 0,-0.282 0.21794,-0.5 0.5,-0.5 z m -2.5,3 c -1.09864,0 -2,0.9014 -2,2 0,1.0987 0.90136,2 2,2 1.09864,0 2,-0.9013 2,-2 0,-1.0986 -0.90136,-2 -2,-2 z m 0,1 c 0.5582,0 1,0.4418 1,1 0,0.5582 -0.4418,1 -1,1 -0.5582,0 -1,-0.4418 -1,-1 0,-0.5582 0.4418,-1 1,-1 z m 6.5,1 c -0.8225,0 -1.5,0.6775 -1.5,1.5 0,0.8225 0.6775,1.5 1.5,1.5 0.8225,0 1.5,-0.6775 1.5,-1.5 0,-0.8225 -0.6775,-1.5 -1.5,-1.5 z m 0,1 c 0.28206,0 0.5,0.218 0.5,0.5 0,0.2821 -0.21794,0.5 -0.5,0.5 -0.28206,0 -0.5,-0.2179 -0.5,-0.5 0,-0.282 0.21794,-0.5 0.5,-0.5 z"/></g><style type="text/css">
	.st0{fill:#030102;}
</style></svg>